<svg width="100" height="29" fill="none" xmlns="http://www.w3.org/2000/svg"><rect width="100" height="29" rx="14.5" fill="#F4F4F4"/><path d="M26.65 13c-.324-1.79-1.756-2.847-3.511-2.847-2.233 0-3.853 1.722-3.853 4.483 0 2.762 1.62 4.483 3.852 4.483 1.756 0 3.188-1.056 3.512-2.846h-1.057c-.256 1.21-1.295 1.858-2.454 1.858-1.586 0-2.83-1.228-2.83-3.495 0-2.267 1.244-3.494 2.83-3.494 1.159 0 2.198.648 2.454 1.858h1.057zm4.23 6.136c1.773 0 2.966-1.346 2.966-3.375 0-2.045-1.193-3.392-2.966-3.392-1.772 0-2.966 1.347-2.966 3.392 0 2.029 1.194 3.375 2.966 3.375zm0-.903c-1.346 0-1.96-1.16-1.96-2.472s.614-2.488 1.96-2.488c1.347 0 1.96 1.176 1.96 2.488 0 1.313-.613 2.472-1.96 2.472zm4.982-5.779h-1.16l2.08 3.273L34.702 19h1.16l1.568-2.54L38.998 19h1.16l-2.114-3.273 2.113-3.273h-1.159l-1.568 2.677-1.568-2.677zm5.73 9h1.006v-3.46h.085c.222.358.648 1.142 1.91 1.142 1.636 0 2.778-1.312 2.778-3.392 0-2.062-1.142-3.375-2.796-3.375-1.278 0-1.67.784-1.892 1.125h-.12v-1.04h-.97v9zm.989-5.727c0-1.466.648-2.454 1.875-2.454 1.278 0 1.91 1.074 1.91 2.454 0 1.398-.649 2.506-1.91 2.506-1.21 0-1.875-1.023-1.875-2.506zm8.25 3.426c1.142 0 1.739-.613 1.943-1.04h.051V19h1.006v-4.313c0-2.079-1.585-2.318-2.42-2.318-.99 0-2.114.341-2.626 1.534l.955.341c.222-.477.746-.988 1.705-.988.924 0 1.38.49 1.38 1.33v.033c0 .486-.494.444-1.687.597-1.215.158-2.54.426-2.54 1.926 0 1.279.989 2.011 2.233 2.011zm.153-.903c-.8 0-1.38-.358-1.38-1.057 0-.767.699-1.006 1.483-1.108.426-.05 1.568-.17 1.738-.375v.92c0 .819-.647 1.62-1.84 1.62zm5.688-5.796h-1.005V19h1.005v-2.796h3.137V19h1.005v-6.546H59.81v2.813h-3.137v-2.813zm6.985 5.063v-5.063H62.65V19h1.176l3.136-5.063V19h1.006v-6.546H66.81l-3.153 5.063zm5.264-4.125h2.164V19h1.006v-5.608h2.148v-.938H68.92v.938zm7.79 1.432v-2.37h-1.005V19h2.744c1.534 0 2.37-.938 2.37-2.114 0-1.193-.836-2.062-2.37-2.062H76.71zm0 .937h1.739c.797 0 1.364.486 1.364 1.177 0 .66-.567 1.125-1.364 1.125H76.71V15.76z" fill="#000"/></svg>